<svg width="271" height="41" viewBox="0 0 271 41" fill="none" xmlns="http://www.w3.org/2000/svg">
<path d="M271 20.5C271 9.54212 262.641 0.589222 252.128 0.0327345V0H19.9223C8.91533 0 0 9.17385 0 20.5C0 31.8261 8.91533 41 19.9223 41H252.128V40.9754C262.641 40.4108 271 31.4579 271 20.5Z" fill="#FFA41B"/>
<path d="M244.017 19.2792C244.16 18.6906 244.393 18.1398 244.709 17.6418L237.797 11.0243C235.909 13.3031 234.691 16.1553 234.435 19.2792H244.017Z" fill="black"/>
<path d="M250.387 5.69708V15.3026C251.004 15.446 251.583 15.6874 252.102 16.027L258.69 9.0926C256.404 7.17602 253.531 5.93854 250.387 5.69708Z" fill="black"/>
<path d="M244.867 23.633C244.423 23.0067 244.107 22.2823 243.964 21.4976H234.42C234.646 24.9836 236.067 28.1452 238.278 30.5674L244.867 23.633Z" fill="black"/>
<path d="M246.25 16.0647C246.822 15.6799 247.476 15.4083 248.183 15.2649V5.68201C244.791 5.91592 241.708 7.29676 239.323 9.43971L246.25 16.0647Z" fill="black"/>
<path d="M254.456 21.4901C254.335 22.1314 254.11 22.7275 253.786 23.2708L260.713 29.8958C262.601 27.5718 263.797 24.6667 264 21.4901H254.456Z" fill="black"/>
<path d="M248.183 25.7759C247.574 25.6552 247.01 25.4364 246.491 25.127L239.88 32.084C242.182 33.9554 245.047 35.1476 248.183 35.3588V25.7759Z" fill="black"/>
<path d="M253.666 17.5814C254.004 18.0945 254.253 18.668 254.403 19.2867H263.985C263.714 15.9742 262.36 12.971 260.277 10.6319L253.666 17.5814Z" fill="black"/>
<path d="M252.29 24.8931C251.726 25.293 251.086 25.5873 250.387 25.7457V35.3513C253.771 35.0872 256.84 33.6761 259.202 31.5105L252.29 24.8931Z" fill="black"/>
<path d="M110.187 26.0519C108.729 24.4301 108 22.5194 108 20.3197C108 18.12 108.741 16.221 110.228 14.6287C111.715 13.0364 113.537 12.2403 115.689 12.2403C117.846 12.2403 119.639 13.0541 121.067 14.6759C122.554 16.2387 123.295 18.1317 123.295 20.355C123.295 22.5783 122.554 24.4773 121.067 26.0578C120.379 26.7714 119.574 27.3493 118.639 27.7916L118.134 27.9862C119.098 28.5111 119.921 28.7765 120.603 28.7765C121.285 28.7765 121.996 28.4993 122.725 27.9449C123.001 27.7267 123.312 27.6383 123.653 27.6796C123.994 27.7208 124.276 27.886 124.494 28.1631C124.711 28.4403 124.8 28.7529 124.758 29.1067C124.717 29.4547 124.547 29.7495 124.253 29.9854C123.06 30.9054 121.855 31.3654 120.65 31.3654H120.585C119.392 31.3654 118.057 30.929 116.588 30.0503C116.194 29.8321 115.8 29.72 115.395 29.72C114.995 29.72 114.631 29.7672 114.301 29.8616C113.972 29.9559 113.772 30.0326 113.702 30.0916C113.237 30.357 112.814 30.3334 112.432 30.0267C112.391 29.9854 112.332 29.9618 112.256 29.9618C111.85 29.3898 111.715 28.9239 111.85 28.5583C111.991 28.1926 112.22 27.9272 112.538 27.768L112.603 27.7267C111.721 27.2962 110.916 26.7419 110.187 26.0519ZM115.647 25.8573C117.088 25.8573 118.304 25.3147 119.286 24.2355C120.268 23.1563 120.761 21.8589 120.761 20.3433C120.761 18.8276 120.268 17.5361 119.274 16.451C118.281 15.3718 117.076 14.8292 115.647 14.8292C114.219 14.8292 113.032 15.3659 112.085 16.4274C111.08 17.4653 110.575 18.751 110.575 20.2843C110.575 21.8176 111.057 23.1327 112.027 24.2178C113.002 25.3088 114.207 25.8573 115.647 25.8573Z" fill="black"/>
<path d="M134.399 23.2447C134.399 24.4891 133.946 25.5565 133.035 26.4588C132.124 27.3552 131.048 27.8093 129.802 27.8093C128.556 27.8093 127.486 27.3611 126.587 26.4706C125.693 25.5801 125.24 24.5068 125.24 23.2447V18.002C125.24 17.6953 125.352 17.424 125.581 17.1882C125.805 16.9523 126.081 16.8402 126.398 16.8402C126.716 16.8402 126.992 16.9582 127.216 17.1882C127.439 17.424 127.556 17.6953 127.556 18.002V23.2447C127.556 23.8757 127.774 24.4006 128.203 24.837C128.632 25.2675 129.161 25.4857 129.79 25.4857C130.419 25.4857 130.954 25.2675 131.395 24.837C131.842 24.4065 132.071 23.8757 132.083 23.2447V18.002C132.083 17.6953 132.194 17.424 132.412 17.1882C132.629 16.9523 132.894 16.8402 133.211 16.8402C133.523 16.8402 133.799 16.9582 134.04 17.1882C134.281 17.424 134.399 17.6953 134.399 18.002V23.2447Z" fill="black"/>
<path d="M139.665 13.6439V14.1039C139.665 14.44 139.554 14.7231 139.324 14.959C139.101 15.1949 138.819 15.3069 138.495 15.3069C138.166 15.3069 137.884 15.189 137.655 14.959C137.42 14.7231 137.308 14.44 137.308 14.1039V13.6439C137.308 13.3254 137.426 13.0424 137.655 12.8124C137.89 12.5765 138.166 12.4644 138.495 12.4644C138.825 12.4644 139.101 12.5765 139.324 12.8065C139.554 13.0247 139.665 13.3077 139.665 13.6439ZM137.643 17.2059C137.867 16.9818 138.149 16.8638 138.484 16.8638C138.819 16.8638 139.101 16.9759 139.324 17.2059C139.548 17.43 139.665 17.719 139.665 18.0728V26.6239C139.665 26.9601 139.554 27.2432 139.324 27.4673C139.101 27.6914 138.819 27.8093 138.495 27.8093C138.166 27.8093 137.884 27.6914 137.655 27.4614C137.42 27.2255 137.308 26.9483 137.308 26.6298V18.0787C137.308 17.719 137.42 17.43 137.643 17.2059Z" fill="black"/>
<path d="M142.728 26.1934C141.635 25.1201 141.088 23.8286 141.088 22.3248C141.088 20.8209 141.635 19.5353 142.728 18.4679C143.821 17.4005 145.126 16.8579 146.637 16.8461C147.907 16.8461 149.064 17.2472 150.111 18.0492C150.358 18.2379 150.505 18.4974 150.546 18.8276C150.587 19.1579 150.511 19.4469 150.317 19.6945C150.123 19.9422 149.864 20.0897 149.552 20.131C149.241 20.1722 148.959 20.0956 148.712 19.8892C148.071 19.4233 147.348 19.1874 146.537 19.1874C145.726 19.1874 145.003 19.4999 144.362 20.131C143.721 20.762 143.398 21.4991 143.398 22.3425C143.398 23.1917 143.715 23.9229 144.35 24.5481C144.985 25.1673 145.708 25.4798 146.525 25.4798C147.342 25.4798 148.071 25.244 148.712 24.7781C148.947 24.5893 149.223 24.5127 149.541 24.5599C149.858 24.6011 150.123 24.7486 150.317 24.9963C150.511 25.244 150.587 25.527 150.546 25.8396C150.505 26.1521 150.358 26.4234 150.111 26.6416C149.035 27.4142 147.877 27.8034 146.637 27.8034C145.12 27.8093 143.821 27.2667 142.728 26.1934Z" fill="black"/>
<path d="M154.825 27.4554C154.584 27.6913 154.296 27.8034 153.961 27.8034C153.626 27.8034 153.344 27.6854 153.109 27.4554C152.873 27.2196 152.762 26.9365 152.762 26.6003V13.6616C152.762 13.3254 152.879 13.0423 153.109 12.8064C153.344 12.5705 153.626 12.4585 153.961 12.4585C154.296 12.4585 154.584 12.5764 154.825 12.8064C155.066 13.0423 155.183 13.3254 155.183 13.6616V21.2455L159.663 16.7518C159.898 16.5159 160.18 16.4038 160.515 16.4038C160.85 16.4038 161.138 16.5218 161.379 16.7518C161.62 16.9877 161.738 17.2707 161.738 17.6069C161.738 17.943 161.614 18.2261 161.367 18.462L158.087 21.7527L161.455 25.8101C161.773 26.217 161.82 26.6534 161.585 27.1134C161.35 27.5734 161.015 27.8034 160.58 27.8034C160.145 27.8034 159.815 27.656 159.598 27.367L156.383 23.4629L155.183 24.666V26.5944C155.183 26.9365 155.066 27.2196 154.825 27.4554Z" fill="black"/>
<path d="M172.101 13.8385C173.018 14.7585 173.476 15.8672 173.476 17.1587C173.476 18.4502 173.018 19.5589 172.101 20.4671C171.184 21.3812 170.073 21.8353 168.78 21.8353H166.093V26.5944C166.093 26.9306 165.976 27.2137 165.735 27.4496C165.494 27.6855 165.206 27.7975 164.871 27.7975C164.536 27.7975 164.254 27.6796 164.018 27.4496C163.783 27.2137 163.672 26.9306 163.672 26.5944V13.6616C163.672 13.3254 163.789 13.0423 164.018 12.8064C164.254 12.5705 164.536 12.4585 164.871 12.4585H168.78C170.073 12.4585 171.178 12.9185 172.101 13.8385ZM166.088 14.8941V19.4115H168.774C169.403 19.4115 169.932 19.1933 170.367 18.751C170.802 18.3146 171.031 17.7838 171.043 17.1705C171.031 16.5277 170.802 15.9851 170.367 15.5487C169.932 15.1123 169.397 14.8882 168.774 14.8882H166.088V14.8941Z" fill="black"/>
<path d="M184.421 22.0417C184.421 22.366 184.316 22.6255 184.104 22.8201C183.892 23.0147 183.61 23.115 183.263 23.115H176.316C176.445 23.746 176.692 24.2237 177.056 24.5598C177.521 25.1024 178.202 25.4267 179.102 25.5329C179.995 25.6449 180.771 25.4621 181.43 24.9962C181.647 24.7603 181.941 24.6483 182.305 24.6483C182.67 24.6483 182.923 24.7426 183.07 24.9314C183.475 25.3854 183.475 25.8572 183.07 26.3585C182.023 27.3257 180.736 27.8034 179.213 27.7975C177.691 27.7916 176.415 27.2549 175.387 26.1875C174.358 25.1201 173.841 23.8344 173.823 22.3306C173.835 20.8268 174.358 19.5353 175.387 18.462C176.415 17.3886 177.656 16.852 179.114 16.852C180.571 16.852 181.8 17.3297 182.793 18.2909C183.793 19.2463 184.333 20.4671 184.421 21.9414V22.0417ZM179.155 18.9279C178.308 18.9691 177.632 19.2345 177.121 19.7181C176.609 20.2017 176.304 20.7148 176.204 21.2514H182.388C182.258 20.7383 181.906 20.243 181.33 19.7594C180.754 19.2758 180.031 18.9986 179.155 18.9279Z" fill="black"/>
<path d="M188.683 26.6416C188.683 26.966 188.559 27.2373 188.313 27.4613C188.066 27.6854 187.783 27.8034 187.472 27.8034C187.16 27.8034 186.89 27.6913 186.661 27.4613C186.437 27.2373 186.32 26.9601 186.32 26.6416V18.0079C186.32 17.6895 186.432 17.4123 186.661 17.1882C186.884 16.9641 187.16 16.8461 187.478 16.8461C187.972 16.8461 188.33 17.0702 188.548 17.5243C189.259 17.0702 190.035 16.8461 190.864 16.8461C192.133 16.8461 193.209 17.2943 194.097 18.1966C194.984 19.093 195.431 20.1663 195.431 21.4107V26.6534C195.431 26.9778 195.319 27.249 195.102 27.4731C194.884 27.6972 194.62 27.8152 194.302 27.8152C193.991 27.8152 193.714 27.7031 193.485 27.4731C193.25 27.249 193.138 26.9719 193.138 26.6534V21.4107C193.138 20.7974 192.915 20.2725 192.474 19.842C192.027 19.4115 191.498 19.1933 190.881 19.1933C190.264 19.1933 189.741 19.4115 189.318 19.842C188.894 20.2725 188.683 20.7974 188.683 21.4107V26.6416Z" fill="black"/>
<path d="M200.51 26.6416C200.51 26.966 200.386 27.2373 200.139 27.4613C199.893 27.6854 199.61 27.8034 199.299 27.8034C198.987 27.8034 198.717 27.6913 198.488 27.4613C198.264 27.2373 198.147 26.9601 198.147 26.6416V18.0079C198.147 17.6895 198.258 17.4123 198.488 17.1882C198.711 16.9641 198.987 16.8461 199.305 16.8461C199.798 16.8461 200.157 17.0702 200.375 17.5243C201.086 17.0702 201.862 16.8461 202.691 16.8461C203.96 16.8461 205.036 17.2943 205.923 18.1966C206.811 19.093 207.258 20.1663 207.258 21.4107V26.6534C207.258 26.9778 207.146 27.249 206.929 27.4731C206.711 27.6972 206.447 27.8152 206.129 27.8152C205.818 27.8152 205.541 27.7031 205.312 27.4731C205.077 27.249 204.965 26.9719 204.965 26.6534V21.4107C204.965 20.7974 204.742 20.2725 204.301 19.842C203.854 19.4115 203.325 19.1933 202.708 19.1933C202.091 19.1933 201.568 19.4115 201.145 19.842C200.721 20.2725 200.51 20.7974 200.51 21.4107V26.6416Z" fill="black"/>
<path d="M216.222 17.1704C216.439 16.9522 216.71 16.8402 217.033 16.8402C217.351 16.8402 217.633 16.9522 217.862 17.1822C218.097 17.4063 218.209 17.6835 218.209 18.002V26.2877C218.209 27.7503 217.703 28.9887 216.692 30.0031C215.681 31.0174 214.447 31.5246 212.989 31.5246C212.219 31.5246 211.467 31.3418 210.738 30.9761C210.432 30.8464 210.226 30.6282 210.126 30.3274C210.026 30.0267 210.038 29.7259 210.168 29.4192C210.314 29.1538 210.544 28.971 210.855 28.8708C211.167 28.7705 211.502 28.8059 211.849 28.9828C212.195 29.1597 212.636 29.2423 213.16 29.2364C213.683 29.2305 214.2 29.0418 214.7 28.6644C215.205 28.2928 215.54 27.821 215.716 27.249C215.105 27.5969 214.412 27.7739 213.642 27.7739C212.389 27.7739 211.314 27.3198 210.42 26.4116C209.527 25.5034 209.074 24.4242 209.074 23.168V17.9961C209.074 17.6776 209.186 17.4004 209.415 17.1763C209.639 16.9522 209.915 16.8343 210.232 16.8343C210.55 16.8343 210.82 16.9463 211.043 17.1645C211.267 17.3827 211.373 17.6599 211.373 17.9961V23.168C211.373 23.7991 211.596 24.3239 212.037 24.7603C212.484 25.1908 213.018 25.409 213.642 25.409C214.27 25.409 214.799 25.1908 215.234 24.7603C215.669 24.3298 215.893 23.7991 215.893 23.168V17.9961C215.893 17.6717 216.005 17.3945 216.222 17.1704Z" fill="black"/>
<path d="M30.22 14C30.9533 14 31.6133 14.1733 32.2 14.52C32.7867 14.8533 33.24 15.3267 33.56 15.94C33.8933 16.54 34.06 17.22 34.06 17.98C34.06 18.74 33.8933 19.4333 33.56 20.06C33.24 20.6867 32.7867 21.18 32.2 21.54C31.6133 21.9 30.9533 22.08 30.22 22.08H26.08V27.4C26.08 27.5733 26.02 27.72 25.9 27.84C25.7933 27.9467 25.6533 28 25.48 28C25.3067 28 25.16 27.9467 25.04 27.84C24.9333 27.72 24.88 27.5733 24.88 27.4V14.6C24.88 14.4267 24.9333 14.2867 25.04 14.18C25.16 14.06 25.3067 14 25.48 14H30.22ZM30.22 20.92C30.9933 20.92 31.62 20.64 32.1 20.08C32.58 19.52 32.82 18.82 32.82 17.98C32.82 17.1533 32.58 16.48 32.1 15.96C31.62 15.44 30.9933 15.18 30.22 15.18H26.08V20.92H30.22ZM44.6964 17.78C44.8697 17.78 45.0097 17.84 45.1164 17.96C45.2364 18.08 45.2964 18.2267 45.2964 18.4V27.4C45.2964 27.5733 45.2364 27.72 45.1164 27.84C45.0097 27.9467 44.8697 28 44.6964 28C44.5231 28 44.3764 27.9467 44.2564 27.84C44.1497 27.72 44.0964 27.5733 44.0964 27.4V26.06C43.7631 26.66 43.2631 27.1667 42.5964 27.58C41.9297 27.9933 41.2031 28.2 40.4164 28.2C39.5231 28.2 38.7164 27.9667 37.9964 27.5C37.2897 27.0333 36.7297 26.3933 36.3164 25.58C35.9164 24.7667 35.7164 23.8533 35.7164 22.84C35.7164 21.8267 35.9231 20.92 36.3364 20.12C36.7497 19.3067 37.3097 18.6733 38.0164 18.22C38.7364 17.7667 39.5297 17.54 40.3964 17.54C41.1964 17.54 41.9297 17.7333 42.5964 18.12C43.2631 18.5067 43.7631 19.0133 44.0964 19.64V18.4C44.0964 18.2267 44.1497 18.08 44.2564 17.96C44.3764 17.84 44.5231 17.78 44.6964 17.78ZM40.5364 27.08C41.2297 27.08 41.8497 26.9 42.3964 26.54C42.9564 26.1667 43.3897 25.66 43.6964 25.02C44.0164 24.3667 44.1764 23.64 44.1764 22.84C44.1764 22.0667 44.0164 21.36 43.6964 20.72C43.3897 20.08 42.9564 19.58 42.3964 19.22C41.8497 18.8467 41.2297 18.66 40.5364 18.66C39.8431 18.66 39.2164 18.84 38.6564 19.2C38.1097 19.56 37.6764 20.06 37.3564 20.7C37.0497 21.3267 36.8964 22.04 36.8964 22.84C36.8964 23.64 37.0497 24.3667 37.3564 25.02C37.6631 25.66 38.0897 26.1667 38.6364 26.54C39.1964 26.9 39.8297 27.08 40.5364 27.08ZM55.8133 17.6C55.9866 17.6 56.1266 17.66 56.2333 17.78C56.3533 17.8867 56.4133 18.0267 56.4133 18.2V27.02C56.4133 28.0733 56.2066 28.9733 55.7933 29.72C55.3799 30.4667 54.8066 31.0333 54.0733 31.42C53.3399 31.8067 52.5133 32 51.5933 32C51.0333 32 50.5066 31.94 50.0133 31.82C49.5333 31.7 49.1333 31.54 48.8133 31.34C48.5333 31.1667 48.3933 30.9733 48.3933 30.76C48.3933 30.7333 48.4066 30.6667 48.4333 30.56C48.4733 30.4267 48.5399 30.3267 48.6333 30.26C48.7266 30.1933 48.8266 30.16 48.9333 30.16C49.0133 30.16 49.0933 30.18 49.1733 30.22C50.0266 30.6867 50.8399 30.92 51.6133 30.92C52.7199 30.92 53.5933 30.5733 54.2333 29.88C54.8866 29.1867 55.2133 28.24 55.2133 27.04V26.34C54.8799 26.9 54.3999 27.3533 53.7733 27.7C53.1466 28.0333 52.4666 28.2 51.7333 28.2C50.5733 28.2 49.6933 27.8533 49.0933 27.16C48.4933 26.4667 48.1933 25.5267 48.1933 24.34V18.2C48.1933 18.0267 48.2466 17.8867 48.3533 17.78C48.4733 17.66 48.6199 17.6 48.7933 17.6C48.9666 17.6 49.1066 17.66 49.2133 17.78C49.3333 17.8867 49.3933 18.0267 49.3933 18.2V24.16C49.3933 25.12 49.5999 25.8467 50.0133 26.34C50.4399 26.8333 51.0999 27.08 51.9933 27.08C52.5399 27.08 53.0599 26.9467 53.5533 26.68C54.0599 26.4 54.4599 26.04 54.7533 25.6C55.0599 25.1467 55.2133 24.6667 55.2133 24.16V18.2C55.2133 18.0267 55.2666 17.8867 55.3733 17.78C55.4933 17.66 55.6399 17.6 55.8133 17.6ZM77.1692 17.56C77.3426 17.56 77.4826 17.6133 77.5892 17.72C77.7092 17.8267 77.7692 17.9733 77.7692 18.16C77.7692 18.1733 77.7492 18.26 77.7092 18.42L74.6292 27.62C74.5626 27.74 74.4759 27.84 74.3692 27.92C74.2626 27.9867 74.1492 28.0133 74.0292 28C73.9092 28 73.8026 27.9667 73.7092 27.9C73.6159 27.8333 73.5426 27.74 73.4892 27.62L70.8692 21.46L68.5292 27.62C68.4759 27.7267 68.3959 27.82 68.2892 27.9C68.1959 27.9667 68.0959 28 67.9892 28C67.8559 28.0133 67.7292 27.9867 67.6092 27.92C67.5026 27.84 67.4292 27.74 67.3892 27.62L64.2292 18.42C64.1892 18.34 64.1692 18.2533 64.1692 18.16C64.1692 17.9867 64.2292 17.8467 64.3492 17.74C64.4692 17.62 64.6159 17.56 64.7892 17.56C64.9092 17.56 65.0159 17.6 65.1092 17.68C65.2159 17.7467 65.2892 17.84 65.3292 17.96L67.9892 25.94L70.3692 19.96C70.4626 19.7067 70.6492 19.58 70.9292 19.58C71.1959 19.58 71.3826 19.7067 71.4892 19.96L73.9892 25.9L76.6092 17.96C76.6892 17.6933 76.8759 17.56 77.1692 17.56ZM81.2283 27.4C81.2283 27.5733 81.1683 27.72 81.0483 27.84C80.9416 27.9467 80.8016 28 80.6283 28C80.4549 28 80.3083 27.9467 80.1883 27.84C80.0816 27.72 80.0283 27.5733 80.0283 27.4V18.2C80.0283 18.0267 80.0816 17.8867 80.1883 17.78C80.3083 17.66 80.4549 17.6 80.6283 17.6C80.8016 17.6 80.9416 17.66 81.0483 17.78C81.1683 17.8867 81.2283 18.0267 81.2283 18.2V27.4ZM80.6283 16.26C80.3616 16.26 80.1549 16.2 80.0083 16.08C79.8616 15.9467 79.7883 15.76 79.7883 15.52V15.32C79.7883 15.08 79.8616 14.9 80.0083 14.78C80.1683 14.6467 80.3816 14.58 80.6483 14.58C81.1816 14.58 81.4483 14.8267 81.4483 15.32V15.52C81.4483 15.76 81.3749 15.9467 81.2283 16.08C81.0949 16.2 80.8949 16.26 80.6283 16.26ZM86.3456 18.94V25.64C86.3456 26.1467 86.439 26.4933 86.6256 26.68C86.8123 26.8533 87.059 26.94 87.3656 26.94C87.4456 26.94 87.5456 26.9267 87.6656 26.9C87.7856 26.86 87.879 26.84 87.9456 26.84C88.0656 26.84 88.1656 26.8933 88.2456 27C88.339 27.0933 88.3856 27.2067 88.3856 27.34C88.3856 27.5267 88.279 27.6867 88.0656 27.82C87.8523 27.94 87.599 28 87.3056 28C86.9456 28 86.6256 27.9667 86.3456 27.9C86.0656 27.8333 85.7923 27.6333 85.5256 27.3C85.2723 26.9667 85.1456 26.4333 85.1456 25.7V18.94H83.6856C83.5256 18.94 83.3856 18.8867 83.2656 18.78C83.159 18.6733 83.1056 18.54 83.1056 18.38C83.1056 18.22 83.159 18.0867 83.2656 17.98C83.3856 17.8733 83.5256 17.82 83.6856 17.82H85.1456V15.6C85.1456 15.4267 85.199 15.2867 85.3056 15.18C85.4256 15.06 85.5723 15 85.7456 15C85.919 15 86.059 15.06 86.1656 15.18C86.2856 15.2867 86.3456 15.4267 86.3456 15.6V17.82H88.3456C88.4923 17.82 88.619 17.88 88.7256 18C88.8456 18.12 88.9056 18.2533 88.9056 18.4C88.9056 18.56 88.8523 18.6933 88.7456 18.8C88.639 18.8933 88.5056 18.94 88.3456 18.94H86.3456ZM95.783 17.7C96.983 17.7 97.8763 18.08 98.463 18.84C99.0496 19.5867 99.343 20.5533 99.343 21.74V27.4C99.343 27.5733 99.283 27.72 99.163 27.84C99.0563 27.9467 98.9163 28 98.743 28C98.5696 28 98.423 27.9467 98.303 27.84C98.1963 27.72 98.143 27.5733 98.143 27.4V21.74C98.143 20.8733 97.9363 20.1733 97.523 19.64C97.1096 19.0933 96.463 18.82 95.583 18.82C95.023 18.82 94.4896 18.9533 93.983 19.22C93.4896 19.4867 93.0896 19.8467 92.783 20.3C92.4763 20.74 92.323 21.22 92.323 21.74V27.4C92.323 27.5733 92.263 27.72 92.143 27.84C92.0363 27.9467 91.8963 28 91.723 28C91.5496 28 91.403 27.9467 91.283 27.84C91.1763 27.72 91.123 27.5733 91.123 27.4V13.8C91.123 13.6267 91.1763 13.4867 91.283 13.38C91.403 13.26 91.5496 13.2 91.723 13.2C91.8963 13.2 92.0363 13.26 92.143 13.38C92.263 13.4867 92.323 13.6267 92.323 13.8V19.66C92.683 19.0867 93.183 18.62 93.823 18.26C94.463 17.8867 95.1163 17.7 95.783 17.7Z" fill="black"/>
</svg>
