<svg width="256" height="256" viewBox="0 0 256 256" fill="none" xmlns="http://www.w3.org/2000/svg">
<rect width="256" height="256" fill="#FFA31C"/>
<path d="M143.179 155.543L190.914 203.278C173.798 217.614 151.742 226.239 127.673 226.239C103.236 226.239 80.8757 217.347 63.6543 202.626L111.261 155.02C116.057 157.906 121.672 159.563 127.673 159.563C133.302 159.563 138.588 158.106 143.179 155.543Z" fill="white"/>
<path d="M158.414 136.227H225.89C224.076 157.301 215.627 176.484 202.644 191.672L155.038 144.066C156.5 141.646 157.643 139.013 158.414 136.227Z" fill="white"/>
<path d="M226 120.513H158.776C158.019 117.198 156.743 114.079 155.038 111.245L202.644 63.6387C215.917 79.1694 224.452 98.8768 226 120.513Z" fill="white"/>
<path d="M191.434 52.464L143.784 100.113C139.055 97.3368 133.55 95.7461 127.673 95.7461C110.051 95.7461 95.7636 110.034 95.7636 127.655C95.7636 133.532 97.3543 139.038 100.131 143.767L52.4816 191.416C37.8891 174.228 29.0879 151.968 29.0879 127.655C29.0879 73.2097 73.2272 29.0703 127.673 29.0703C151.986 29.0703 174.246 37.8715 191.434 52.464Z" fill="white"/>
</svg>
